<?xml version="1.0" encoding="utf-8"?>
<!-- Generator: Adobe Illustrator 26.0.1, SVG Export Plug-In . SVG Version: 6.00 Build 0)  -->
<svg version="1.1" id="Layer_1" xmlns="http://www.w3.org/2000/svg" xmlns:xlink="http://www.w3.org/1999/xlink" x="0px" y="0px"
	 viewBox="0 0 800 800" style="enable-background:new 0 0 800 800;" xml:space="preserve">
<style type="text/css">
	.st0{fill:#FFFFFF;}
	.st1{fill:#081E28;}
</style>
<g>
	<g>
		<g>
			<path class="st0" d="M642.4,197.5c-1,23.9-3.5,47.5-8,70.9c-9.3,48.2-27.7,92.4-55,132.6c-1.9,2.8-3.8,5.6-5.8,8.3
				c-1,1.4-2,2.8-3,4.2c-1,1.3-2,2.7-3,4c-5.9,7.8-12,15.2-18.5,22.4c-2.2,2.5-4.5,5-6.8,7.4c-2.3,2.4-4.6,4.8-7,7.2
				C522.2,467.8,508,480,492.9,491c-0.9,0.2-1.8,0.7-2.9,1.5c-22.5,16.5-47.2,29.4-72.6,40.9c-0.2,0.1-0.4,0.2-0.7,0.3
				c-5,2-9.6,1.6-14.7-0.6c-26.4-11.8-51-26-73.5-42.8c-24.7-18.4-47-39.8-66.6-64.4c-3-3.7-5.9-7.5-8.7-11.3
				c-2.3-3.1-4.6-6.2-6.7-9.4c-28.4-41-47.6-86.3-57.1-135.7c-4.5-23.4-6.9-47-8-70.9c-1.4-32.7,1.4-65.2,3.2-97.8
				c0.4-7.4,4.3-12.2,10.6-15.7C232,64.5,270.6,48.5,311,37.4c28.9-8,58.4-13.2,87.4-21c15-4,28.7,0.7,42.7,3.2
				c1.7,0.3,3.4,0.6,5.1,0.9c44.1,8.1,87.3,19.6,128.7,37.1c5,2.1,10,4.4,15,6.7c0.1,0.1,0.2,0.1,0.3,0.1c7.6,3.6,15.1,7.3,22.7,11
				c5.3,2.8,10.6,5.6,15.8,8.5c6.3,3.6,10.2,8.4,10.6,15.7C641,132.3,643.9,164.8,642.4,197.5z"/>
		</g>
		<g>
			<path class="st0" d="M88.5,673c1.9-8.4,3.7-16.8,5.7-25.2c6.3-26,12.5-52.1,19.2-78c3.8-14.7,11.9-21.1,26.8-22.7
				c5.9-0.6,8.6,1.7,8.2,7.5c-0.3,3.6-0.9,7.3-1.9,10.8c-11.8,40.2-23.7,80.5-35.7,120.6c-1.6,5.2-3.6,10.4-5.9,15.3
				c-3.4,7.4-9.5,11.8-17.7,11.9c-8.3,0.2-14.4-4.5-17.6-11.9c-3.6-8.5-6.5-17.4-9.2-26.4c-10.8-36.5-21.3-73.2-31.8-109.8
				c-1.5-5.4-4.3-11.6,0.6-16c4.9-4.3,11.2-1.5,16.6,0.4c7.3,2.6,11.5,8.5,13.6,15.7c3.5,12.1,6.8,24.3,9.8,36.6
				c5.7,22.7,11.3,45.5,16.9,68.3c0.2,0.9,0.6,1.8,0.9,2.7C87.7,672.9,88.1,672.9,88.5,673z"/>
		</g>
		<g>
			<g>
				<path class="st0" d="M647.5,634.5c-0.1-21.1-12.7-37.4-33-43c-11.8-3.2-23.8-3-35.7-0.9c-9,1.6-17.2,5.1-24.5,10.6
					c-3.7,2.8-4.4,5.4-1.3,9.1c2.4,2.8,4.5,5.8,6.8,8.6c4.5,5.5,5.1,5.8,11.1,2.2c9.2-5.5,19.2-7.4,29.7-6.4
					c14.1,1.3,23,15.1,18.7,28.9c-0.6-0.2-1.2-0.4-1.8-0.7c-14.7-9.8-30.6-9.3-46.5-4.5c-26.3,7.8-35.7,34.9-21.2,57.9
					c13.9,22,49,22.5,63,9.8c2.3-2,4.7-3.9,6.6-5.4c3.7,4,6.5,7.9,10.1,10.7c4,3,9,3.9,13.7,1.8c4.6-2.1,4.1-6.8,4.1-11
					C647.4,679.4,647.5,657,647.5,634.5z M595.7,689.9c-8-0.3-15.2-1.5-20.7-7.7c-3.4-3.8-5-8.2-3.5-13.4c1.6-5.5,5.8-7.9,11-8.9
					c9-1.7,26-0.8,35.6,1.8C620.2,675.6,613.2,690.6,595.7,689.9z"/>
			</g>
		</g>
		<g>
			<path class="st0" d="M244.3,697.5c-7.6,9.6-16.4,15.8-28.1,16.9c-17,1.6-32.5-1.8-44.8-14.6c-6.3-6.5-9.9-14.5-10-23.3
				c-0.4-27.1-0.2-54.3-0.2-81.4c0-4.5,2.2-5.6,6.4-5c12.8,1.8,22.6,13,22.9,26.9c0.3,17,0.1,34,0.4,51c0.2,9.6,4.1,17.5,13.7,20.6
				c19,6.2,37.7-3.8,37.9-25.8c0.1-15.8-0.1-31.7,0.1-47.5c0.1-13.3,9.9-24.2,22.3-25.2c5.4-0.4,6.5,0.5,6.5,6
				c0.1,36.6,0.1,73.3,0.1,109.9c0,6.9-3.6,9.7-10,6.9c-4-1.7-7.5-4.7-10.8-7.6C248.4,703.4,246.7,700.6,244.3,697.5z"/>
		</g>
		<g>
			<path class="st0" d="M666.5,647.5c0-17,0-34,0-51c0-6.3,2.6-8.2,7.9-4.8c4.9,3.2,9.2,7.6,13.2,11.9c3,3.2,4.3,3.3,7.1-0.3
				c10-12.8,24-15.5,39-13.7c24.2,2.9,39.5,20.3,39.6,44.7c0.2,23,0,46,0,69c0,2-0.2,4-0.5,6c-0.5,3.9-3.2,5.2-6.8,5.2
				c-12.3-0.2-22-10.3-22-22.5c0.1-18.5,0.1-37-0.1-55.5c-0.2-16.6-11-25.4-27.5-22.7c-0.3,0-0.7,0.2-1,0.2
				c-18,3.5-20.2,6.2-20.3,24.5c0,20.5,0,41,0,61.5c0,10-3,13.8-10.8,14c-9.2,0.3-18-6.8-18-15C666.3,681.8,666.4,664.6,666.5,647.5
				C666.4,647.5,666.5,647.5,666.5,647.5z"/>
		</g>
		<g>
			<path class="st0" d="M537.7,693.8c-16.7,18.7-43.2,25.8-65.8,17.9c-22.4-7.8-38.4-29.4-40.1-53.7c-1.2-17.6,2-33.8,13-48
				c9.5-12.3,22.2-18.9,37.4-20.8c18.4-2.3,35.1,1.7,49.2,14.3c4.3,3.8,4.4,4.3,0.4,8.7c-3.8,4.2-7.5,8.5-11.4,12.6
				c-3.4,3.5-7,3.6-9.8-0.2c-13.4-18-39.1-13.9-48.2,10.5c-6.7,18-1.5,37.2,12.5,47.8c11.5,8.7,23.1,7.7,33-2.7
				c0.7-0.7,1.4-1.5,2-2.2c4.1-4.8,7.2-5.2,11.7-0.8C527.1,682.5,532.2,688.2,537.7,693.8z"/>
		</g>
		<g>
			<path class="st0" d="M422.2,603.3c-5.1,5.5-9.2,9.8-13.2,14.2c-2.7,2.9-5.8,2.4-9.2,1.3c-5.5-1.8-11.1-3.3-16.8-4.6
				c-2.2-0.5-4.6-0.2-6.9,0.1c-5,0.7-8.8,3.2-9.9,8.5c-0.9,4.6,2,10.1,7,12.1c5.5,2.2,11.4,3.7,17.1,5.6c4.6,1.5,9.1,3.1,13.6,5
				c12.6,5.5,18.7,15.7,19.4,29c0.7,13.2-4.3,24.1-15.6,31.6c-19.5,12.8-51.6,10.7-69.5-4.4c-3.2-2.7-3.8-5.2-1-8.4
				c1.8-2,3.4-4.1,5.2-6.1c5-5.5,7.9-6.1,15-3.5c5.1,1.9,10.2,4,15.5,5.2c6.2,1.4,12.4,0.4,17.5-3.8c6.7-5.5,5.6-14.4-2.4-17.5
				c-6.8-2.7-13.9-4.6-20.9-6.6c-13.3-3.7-23.6-10.8-27.8-24.6c-4.2-14,1.5-29,14.2-38.1c18.2-13.1,47.3-12,64.5,2.3
				C419.2,601.7,420.7,602.4,422.2,603.3z"/>
		</g>
		<g>
			<path class="st0" d="M291.7,612.4c0-24.7,0-49.3,0-74c0-7.8,2-9.1,9.5-6.6c12.2,4.1,21.1,15.9,21.1,28.7c0.1,48.8,0,97.6,0,146.4
				c0,6.6-3.4,8.9-9.7,6.9c-12.7-4-20.9-15.3-20.8-28.5C291.7,661.1,291.7,636.8,291.7,612.4z"/>
		</g>
		<g>
			<path class="st1" d="M206.2,210.1c-0.7-10.6-1-21.2-0.9-31.9C205.4,188.8,205.7,199.5,206.2,210.1z"/>
		</g>
		<g>
			<path class="st1" d="M210,107.2c-0.9,1.3-1.6,2.7-1.7,3.9c-0.5,5.7-1,11.3-1.4,17c0.2-4.7,0.4-9.4,0.5-14.2
				C207.5,111.1,208.4,108.9,210,107.2z"/>
		</g>
		<g>
			<path class="st1" d="M401.8,61.8c-3.4,0.6-6.9,1.4-10.3,2c-41.9,6.6-81.9,19.6-121.1,35.2c-13,5.1-25.4,11.7-38.1,17.6
				c-3.9,1.8-6.1,4.5-6.1,9.2c-0.2,24.1-1.3,48.3-1.1,72.4c-0.4-15.8-0.2-31.6,0-47.3c0.1-7.8,0.9-15.7,0.7-23.5
				c-0.1-5.7,2-9.3,6.9-11.6c13.3-6.2,26.3-13,39.9-18.4c31-12.4,62.6-22.8,95.3-29.6C379.1,65.5,390.4,63.3,401.8,61.8z"/>
		</g>
		<g>
			<path class="st1" d="M423,61.8c-2.8-0.4-5.6-0.7-8.5-1c-0.7-0.1-1.5-0.1-2.2-0.1C415.9,60.7,419.5,61.2,423,61.8z"/>
		</g>
		<g>
			<path class="st1" d="M591.8,93.7c-14.6-7.4-29.7-13.8-45.2-19.1c-25-8.6-50.4-16.2-75.9-23.2c-17.9-4.9-36.3-8.5-54.7-11.4
				c-1.2-0.2-2.4-0.3-3.7-0.3c5.6-0.1,11.4,1.4,17,2.4c15.2,2.9,30.4,5.9,45.4,9.6c34,8.5,67.3,18.9,99.3,33.4
				C580,87.8,586,90.7,591.8,93.7z"/>
		</g>
		<g>
			<path class="st1" d="M599.7,198.2c0,4.2-0.1,8.3-0.2,12.5c-0.6,19.3-3.5,38.2-8.1,56.8c1.1-4.6,2.1-9.3,3-14
				C597.8,235.2,599.2,216.7,599.7,198.2z"/>
		</g>
		<g>
			<path class="st1" d="M614.9,107.2c-0.9-1-2-1.9-3.4-2.7c-4.9-2.9-9.8-5.6-14.8-8.2c5.1,2.7,10.2,5.4,15.2,8.1
				C612.9,104.9,614,106,614.9,107.2z"/>
		</g>
		<g>
			<path class="st1" d="M619.6,178.2c0-3.9-0.1-7.9-0.2-11.8c-0.3-12.8-0.9-25.5-1.5-38.3C619.1,144.8,619.6,161.5,619.6,178.2z"/>
		</g>
		<g>
			<path class="st1" d="M206.9,128.1c-0.5,12.8-1.1,25.5-1.4,38.3c-0.1,3.9-0.1,7.9-0.2,11.8C205.2,161.5,205.8,144.8,206.9,128.1z"
				/>
		</g>
		<g>
			<path class="st1" d="M228.2,96.2c-5,2.6-9.9,5.4-14.8,8.2c-1.4,0.8-2.5,1.7-3.4,2.7c0.9-1.2,1.9-2.2,3-2.8
				C218.1,101.6,223.1,98.9,228.2,96.2z"/>
		</g>
		<g>
			<path class="st1" d="M233.5,267.5c-4.6-18.6-7.6-37.5-8.1-56.8c-0.1-4.2-0.2-8.3-0.2-12.5c0.5,18.5,2,36.9,5.4,55.3
				C231.4,258.2,232.4,262.9,233.5,267.5z"/>
		</g>
		<g>
			<path class="st1" d="M412.4,60.7c-0.7,0-1.5,0-2.2,0.1c-2.8,0.3-5.6,0.6-8.5,1C405.4,61.2,408.9,60.7,412.4,60.7z"/>
		</g>
		<g>
			<path class="st1" d="M412.4,39.7c-1.2,0-2.5,0.1-3.7,0.3c-18.4,3-36.7,6.6-54.7,11.4c-25.5,7-50.9,14.6-75.9,23.2
				c-15.4,5.3-30.5,11.7-45.1,19.1c5.8-3,11.7-5.9,17.6-8.6c31.9-14.5,65.3-24.8,99.3-33.4c15-3.8,30.2-6.7,45.4-9.6
				C401,41,406.9,39.6,412.4,39.7z"/>
		</g>
		<g>
			<path class="st1" d="M599.7,198.2c0.2-24.1-0.9-48.3-1.1-72.4c0-4.8-2.2-7.4-6.1-9.2c-12.7-5.9-25.1-12.5-38-17.6
				c-39.2-15.5-79.3-28.6-121.1-35.2c-3.4-0.5-6.9-1.3-10.3-2c11.4,1.5,22.7,3.7,33.9,6.1c32.7,6.8,64.4,17.2,95.3,29.6
				c13.6,5.4,26.6,12.2,39.9,18.4c4.9,2.3,7,5.9,6.9,11.6c-0.2,7.8,0.6,15.6,0.7,23.5C600,166.7,600.2,182.5,599.7,198.2z"/>
		</g>
		<g>
			<path class="st1" d="M618,128.1c-0.4-5.7-0.9-11.3-1.4-17c-0.1-1.2-0.8-2.7-1.7-3.9c1.6,1.8,2.5,3.9,2.6,6.8
				C617.6,118.7,617.8,123.4,618,128.1z"/>
		</g>
		<g>
			<path class="st1" d="M619.6,178.2c0,10.7-0.3,21.3-0.9,31.9C619.2,199.5,619.5,188.8,619.6,178.2z"/>
		</g>
		<g>
			<g>
				<path class="st1" d="M346.3,262.6c2.2-24.2,18-47.3,45.8-56.2c11.7-3.8,23.4-3.5,34.6,1.4c3.5,1.5,6.6,5,8.4,8.4
					c1,1.9,0,6.3-1.6,8c-1.6,1.6-5.6,2.4-8,1.6c-30-9.7-56.2,6-61.7,37.1c-0.1,0.7-0.2,1.3-0.3,2c-1.4,6.4-4.7,9.3-9.6,8.6
					C349.5,272.9,346.2,268.1,346.3,262.6z"/>
			</g>
			<g>
				<path class="st1" d="M475.9,276.6c-2.6,14.4-8,28.1-20.3,38.1c-2.8,2.3-5.8,4.5-9,6.1c-3.9,1.9-7.5,1-10-2.9
					c-2.8-4.4-2.5-8.5,1.4-11.6c6.1-4.9,12.4-9.7,15.7-17.1c1.7-3.8,2.8-7.8,4.1-11.7c0.7-2,1.1-4.2,2.1-6.1c2-3.6,5.1-6,9.5-4.7
					C473.6,268.1,475.7,271.4,475.9,276.6z"/>
			</g>
		</g>
		<g>
			<g>
				<path class="st1" d="M647.3,493.1c0,6.5-2.5,12.7-7.2,17.3c-4.6,4.6-10.8,7.2-17.3,7.2c-6.5,0-12.7-2.5-17.3-7.2L464,368.8
					c3-1.6,6-3.3,8.9-5.2c8.1-5.2,15.6-11.4,22.2-18.6c2.3-2.4,4.4-5,6.5-7.7l138.6,138.6C644.8,480.5,647.3,486.6,647.3,493.1z"/>
			</g>
			<g>
				<g>
					<path class="st0" d="M647.2,468.8l-85-85c-0.7,1.1-1.4,2.2-2.2,3.3c-1.6,2.5-5.1,2.8-7.2,0.7l-7.2-7.2c-1.6-1.6-1.8-4.1-0.6-6
						c0,0,0,0,0,0c1.1-1.6,2.1-3.2,3.2-4.9l-1-1L507.4,329c-1.8,2.9-3.8,5.6-5.8,8.3c-2,2.7-4.2,5.2-6.5,7.7l138,138
						c5.6,5.6,5.6,14.8,0,20.4c-1.4,1.4-3,2.5-4.8,3.2c-1.7,0.7-3.6,1.1-5.4,1.1c-3.7,0-7.4-1.4-10.2-4.2l-63.4-63.4L517.3,408
						l-44.4-44.4c-2.9,1.9-5.9,3.6-8.9,5.2c-3.1,1.7-6.4,3.2-9.6,4.5l50.1,50.1c0.4-0.4,0.7-0.7,1.1-1.1c1.8-1.8,4.8-1.9,6.7,0
						l7.2,7.1c1.8,1.8,1.8,4.8,0,6.6c-0.4,0.4-0.8,0.8-1.1,1.1l80.2,80.2c6.5,6.5,15.2,10.1,24.3,10.1s17.8-3.6,24.4-10.1
						C660.7,504.1,660.7,482.2,647.2,468.8z"/>
				</g>
			</g>
			<g>
				<path class="st1" d="M524.7,263.7c-1.9-59.4-52-113-119.9-111.2c-61.6,1.6-112.3,54.9-110.6,117.5
					c1.6,59.9,50,113.1,114.7,112.1c15.2,0.5,30.9-2.6,45.5-8.7c3.2-1.4,6.5-2.9,9.6-4.5c3-1.6,6-3.3,8.9-5.2
					c8.1-5.2,15.6-11.4,22.2-18.6c2.3-2.4,4.4-5,6.5-7.7c2.1-2.7,4-5.4,5.8-8.3C518.8,311,525.5,289,524.7,263.7z M487.3,308.9
					c-1.6,3-3.5,5.9-5.5,8.7c-2,2.7-4.1,5.3-6.3,7.8c-6.5,7.2-14.2,13.3-22.7,18.1c-3.1,1.7-6.2,3.3-9.5,4.6
					c-3.4,1.4-6.9,2.6-10.5,3.6c-7.6,2.1-15.5,3.2-23.7,3.2c-47.9-0.1-87-39.5-87.1-87.2c0-48.4,38.5-87,86.5-87.7
					c46.7-0.7,88.4,37.3,89.1,88.3C497.7,282.9,494,296.7,487.3,308.9z"/>
			</g>
		</g>
	</g>
	<g>
		<g>
			<path class="st1" d="M619.4,166.4c-0.1-3.5-0.2-7-0.3-10.5c-0.1-3.7-0.3-7.4-0.4-11.1c0-0.7-0.1-1.5-0.1-2.2c0-1-0.1-2-0.1-3
				c-0.2-3.8-0.3-7.5-0.5-11.3c0-0.1,0-0.1,0-0.2c0-0.4-0.1-0.8-0.1-1.2c-0.1-1.3-0.2-2.6-0.3-3.9c-0.1-1.3-0.2-2.7-0.3-4
				c-0.1-1.3-0.2-2.7-0.3-4c-0.1-1.3-0.2-2.7-0.4-4c0-0.2,0-0.3-0.1-0.5c0,0,0,0,0-0.1c0-0.1-0.1-0.3-0.1-0.4c0,0,0,0,0,0
				c0-0.1-0.1-0.3-0.1-0.4s-0.1-0.3-0.2-0.5c0,0,0-0.1,0-0.1c0,0,0-0.1,0-0.1c-0.1-0.1-0.1-0.3-0.2-0.4c0,0,0,0,0-0.1
				c-0.1-0.1-0.1-0.2-0.2-0.4c0,0,0,0,0-0.1c-0.1-0.1-0.1-0.2-0.2-0.4c-0.1-0.1-0.1-0.2-0.2-0.3c0,0,0,0,0-0.1
				c-0.1-0.2-0.3-0.4-0.5-0.6c-0.1-0.1-0.2-0.2-0.3-0.3s-0.2-0.2-0.3-0.3c-0.2-0.2-0.5-0.4-0.7-0.6c-0.5-0.4-1.1-0.8-1.8-1.2
				c-4.9-2.9-9.8-5.6-14.8-8.2c-0.6-0.3-1.3-0.7-1.9-1c-0.2-0.1-0.3-0.2-0.5-0.3c-0.8-0.4-1.6-0.8-2.4-1.2
				c-14.6-7.4-29.7-13.8-45.2-19.1c-25-8.6-50.4-16.2-75.9-23.2c-17.9-4.9-36.3-8.5-54.7-11.4c-1.2-0.2-2.4-0.3-3.7-0.3c0,0,0,0,0,0
				c-0.1,0-0.3,0-0.4,0s-0.3,0-0.4,0c-0.6,0-1.2,0.1-1.8,0.1c-0.1,0-0.2,0-0.3,0c-0.2,0-0.5,0.1-0.8,0.1c-18.4,3-36.7,6.6-54.7,11.4
				c-25.5,7-50.9,14.6-75.9,23.2c-1.9,0.7-3.9,1.3-5.8,2.1c-1.5,0.6-3,1.1-4.6,1.7c-0.9,0.3-1.8,0.7-2.7,1.1
				c-1.2,0.5-2.4,0.9-3.6,1.4c-1.1,0.4-2.2,0.9-3.4,1.4c-0.9,0.3-1.7,0.7-2.6,1.1c-1.9,0.8-3.9,1.7-5.8,2.5
				c-0.6,0.3-1.3,0.6-1.9,0.8c-0.9,0.4-1.9,0.8-2.8,1.3c-1.2,0.6-2.4,1.1-3.7,1.7c-0.3,0.2-0.7,0.3-1,0.5c-0.9,0.4-1.8,0.8-2.6,1.3
				c-1.4,0.7-2.7,1.3-4.1,2c0,0-0.1,0-0.1,0c-0.1,0.1-0.3,0.1-0.4,0.2c-0.4,0.2-0.7,0.4-1.1,0.5c-0.8,0.4-1.5,0.8-2.2,1.2
				c-0.5,0.3-1.1,0.6-1.6,0.8c-0.6,0.3-1.2,0.7-1.9,1c-0.6,0.3-1.2,0.7-1.9,1c-1.2,0.7-2.5,1.3-3.7,2c-2.5,1.4-4.9,2.8-7.4,4.2
				c-0.2,0.1-0.4,0.2-0.5,0.3c-0.1,0.1-0.2,0.1-0.3,0.2c0,0-0.1,0-0.1,0.1c0,0-0.1,0-0.1,0.1c-0.2,0.1-0.3,0.2-0.5,0.3
				c-0.1,0.1-0.2,0.2-0.4,0.3c0,0-0.1,0.1-0.1,0.1c-0.2,0.2-0.4,0.3-0.6,0.5c-0.1,0.1-0.2,0.2-0.4,0.3s-0.2,0.2-0.3,0.3c0,0,0,0,0,0
				l0,0c-0.1,0.2-0.3,0.3-0.4,0.5c0,0,0,0,0,0.1c0,0,0,0,0,0c-0.1,0.1-0.1,0.1-0.1,0.2c-0.1,0.1-0.2,0.3-0.3,0.4
				c-0.1,0.2-0.2,0.3-0.3,0.5c-0.1,0.1-0.1,0.3-0.2,0.4c-0.1,0.2-0.2,0.4-0.2,0.6c-0.1,0.2-0.1,0.3-0.2,0.5
				c-0.1,0.2-0.1,0.3-0.1,0.4c0,0,0,0.1,0,0.1c0,0.2-0.1,0.3-0.1,0.5c-0.3,2.8-0.5,5.6-0.7,8.4s-0.4,5.6-0.6,8.4c0,0.1,0,0.1,0,0.2
				c-0.1,1.6-0.1,3.2-0.2,4.8c-0.1,2.5-0.2,5-0.3,7.5c0,0.1,0,0.2,0,0.3c-0.1,1.9-0.1,3.7-0.2,5.6c-0.1,2.8-0.2,5.5-0.3,8.3
				c-0.1,1.2-0.1,2.4-0.1,3.7c0,0.1,0,0.1,0,0.2c0,0.9-0.1,1.9-0.1,2.9c-0.1,1.7-0.1,3.4-0.1,5.1c0,1.6-0.1,3.3-0.1,4.9
				c0,0.2,0,0.4,0,0.6c0,0.6,0,1.1,0,1.7c-0.1,1.2-0.1,2.4,0,3.6c0,0.3,0,0.7,0,1v0.4c0,1.2,0,2.4,0,3.6c0,1.3,0,2.7,0.1,4
				c0,1.3,0.1,2.7,0.1,4c0,0.7,0,1.3,0.1,2c0,0.7,0,1.4,0.1,2.2c0.1,2.7,0.2,5.4,0.3,8.1c0.1,2.5,0.2,4.9,0.4,7.4c0,0,0,0.1,0,0.1v0
				c0,0.1,0,0.1,0,0.2c0,0.1,0,0.2,0,0.3c0.1,0.9,0.1,1.8,0.2,2.8c0.3,4.2,0.6,8.3,1.1,12.4c0.1,1,0.2,2,0.3,3
				c0.2,2.1,0.5,4.3,0.7,6.4c0.1,0.8,0.2,1.6,0.3,2.4c0.5,3.7,1,7.4,1.6,11c0.2,1.3,0.4,2.6,0.6,3.9c0.2,1.3,0.4,2.6,0.7,3.9
				c0,0,0,0.1,0,0.1c0.2,1.3,0.5,2.6,0.8,4c0.2,1.2,0.4,2.3,0.7,3.5c0.4,1.9,0.8,3.7,1.2,5.6c0.1,0.6,0.3,1.3,0.4,1.9
				c0,0,0,0.1,0,0.1c0.2,0.9,0.4,1.7,0.6,2.5c0.1,0.3,0.1,0.6,0.2,0.9c0.2,0.7,0.3,1.4,0.5,2c0.6,2.2,1.1,4.4,1.7,6.6
				c0.3,1,0.5,2,0.8,3c0.2,0.8,0.5,1.7,0.7,2.5c0.1,0.5,0.3,0.9,0.4,1.4c0.2,0.7,0.4,1.4,0.6,2.1c0.8,2.6,1.6,5.2,2.4,7.8
				c0.3,0.8,0.5,1.7,0.8,2.5c0.5,1.6,1.1,3.1,1.6,4.7c2.3,6.6,4.8,13,7.4,19.4c0.5,1.2,1,2.5,1.6,3.7c2.9,6.7,6,13.3,9.3,19.8
				c0.7,1.5,1.5,2.9,2.2,4.3c0,0.1,0.1,0.1,0.1,0.2c0.5,0.9,0.9,1.8,1.4,2.7c0.4,0.8,0.9,1.7,1.3,2.5c1.5,2.8,3.1,5.6,4.7,8.4
				c0.6,1,1.2,2,1.8,3c0.4,0.7,0.9,1.5,1.3,2.2c0.1,0.1,0.2,0.3,0.3,0.4c0.8,1.4,1.7,2.8,2.5,4.1c0.9,1.4,1.8,2.8,2.7,4.2
				c0,0.1,0.1,0.1,0.1,0.2c0.1,0.1,0.1,0.2,0.2,0.3c0.8,1.3,1.7,2.6,2.5,3.9c0.1,0.2,0.2,0.3,0.3,0.5c1,1.5,2,3.1,3.1,4.6
				c15.5,22.7,34.4,42.4,54.9,60.5c24.9,22,52.3,40.1,82.8,53.4c1.6,0.7,3.6,1,5.6,0.9c0.2,0,0.4,0,0.6,0c0.1,0,0.1,0,0.2,0
				c0.3,0,0.5,0,0.8,0c2.2,0.2,4.5-0.1,6.3-0.9c30.5-13.3,57.9-31.3,82.8-53.4c5.6-5,11-10,16.4-15.2l-13.8-13.8
				c-6.7,6.6-13.7,13-20.9,19.1c-6.9,5.8-14,11.3-21.4,16.5c-11.1,7.9-22.6,15.1-34.7,21.6c-5.2,2.8-10,4.1-14.9,3.9
				c0,0-0.1,0-0.1,0c-0.1,0-0.1,0-0.2,0c-2.6,0.1-5.1-0.2-7.7-0.9c-2.4-0.6-4.7-1.6-7.2-3c-6-3.3-12-6.7-17.8-10.4
				c-1.2-0.7-2.3-1.5-3.5-2.2c-0.3-0.2-0.6-0.4-0.9-0.5c-1.4-0.9-2.8-1.8-4.1-2.7c-1.3-0.9-2.6-1.7-3.8-2.6
				c-0.2-0.1-0.4-0.3-0.6-0.4c-0.9-0.6-1.8-1.2-2.7-1.9c-0.4-0.3-0.9-0.6-1.3-0.9c-0.3-0.2-0.6-0.4-0.9-0.6c-1-0.7-2-1.5-3.1-2.2
				c-0.8-0.6-1.6-1.1-2.4-1.7c-0.9-0.6-1.7-1.3-2.5-1.9c-0.9-0.6-1.7-1.3-2.5-2c-3.4-2.6-6.7-5.3-10-8.1
				c-23.6-19.9-44.3-42.3-61.5-67.9c-15.8-23.5-27.5-49-36.8-75.7c-0.4-1.3-0.9-2.6-1.3-3.9c-0.9-2.7-1.8-5.3-2.6-8
				c-0.4-1.1-0.7-2.2-1-3.3c-0.7-2.3-1.4-4.6-2-6.8c-0.2-0.7-0.4-1.3-0.6-2c-0.3-1.1-0.6-2.1-0.9-3.2c-0.3-1.2-0.6-2.3-0.9-3.5
				c0-0.1-0.1-0.3-0.1-0.4c0-0.1-0.1-0.3-0.1-0.4c-0.3-1.1-0.6-2.3-0.8-3.4c0-0.1-0.1-0.2-0.1-0.3c-0.2-1.1-0.5-2.1-0.7-3.2
				c-0.3-1.2-0.5-2.3-0.8-3.5c-0.2-1.1-0.4-2.2-0.7-3.3c0-0.1,0-0.2-0.1-0.3c-0.2-1.1-0.4-2.2-0.6-3.4c0-0.2-0.1-0.3-0.1-0.5
				c-0.2-1.1-0.4-2.1-0.6-3.2c-0.2-1-0.3-1.9-0.5-2.9v0c-0.1-0.6-0.2-1.2-0.3-1.8c-0.3-2.1-0.6-4.2-0.9-6.2
				c-0.1-0.7-0.2-1.4-0.3-2.2c-0.1-0.6-0.1-1.1-0.2-1.6c-0.1-0.7-0.2-1.4-0.2-2.1c-0.1-0.6-0.1-1.2-0.2-1.8
				c-0.1-0.9-0.2-1.8-0.2-2.7c-0.1-1-0.2-2.1-0.3-3.1c-0.1-0.8-0.1-1.6-0.2-2.5c-0.1-0.7-0.1-1.4-0.1-2.1c0-0.1,0-0.3,0-0.4
				c-0.1-0.9-0.1-1.8-0.1-2.8c-0.1-1.2-0.1-2.4-0.1-3.6c-0.1-1.6-0.1-3.1-0.1-4.7c0-0.6,0-1.3,0-1.9c0-1.6-0.1-3.2-0.1-4.8V199
				c0-0.3,0-0.5,0-0.8c-0.4-15.8-0.2-31.6,0-47.3c0.1-7.8,0.9-15.7,0.7-23.5c-0.1-5.7,2-9.3,6.9-11.6c13.3-6.2,26.3-13,39.9-18.4
				c31-12.4,62.6-22.8,95.3-29.6c9.8-2.1,19.7-4,29.6-5.5c1.4-0.2,2.8-0.4,4.2-0.6c0,0,0,0,0,0c0,0,0,0,0,0h0
				c0.4-0.1,0.8-0.2,1.2-0.2c0.8-0.1,1.6-0.3,2.4-0.4c0.9-0.1,1.7-0.2,2.6-0.3c0.8-0.1,1.5-0.1,2.2-0.2h0c0.7,0,1.4,0,2,0h0.1
				c3.5-0.1,7,0.4,10.6,1.1c0,0,0,0,0.1,0c1.4,0.2,2.8,0.4,4.2,0.6c1.4,0.2,2.7,0.4,4,0.6c0.1,0,0.1,0,0.2,0c0,0,0,0,0,0
				c1.3,0.2,2.6,0.4,3.9,0.7c1.5,0.3,3,0.5,4.6,0.8c1.4,0.2,2.7,0.5,4.1,0.8c0.1,0,0.2,0,0.3,0.1c1.3,0.2,2.7,0.5,4,0.8
				c0.1,0,0.2,0,0.2,0.1c0.3,0.1,0.6,0.1,0.9,0.2c1.1,0.2,2.1,0.4,3.2,0.7c1.4,0.3,2.8,0.6,4.2,0.9c2,0.4,4.1,0.9,6.1,1.3
				c2,0.5,4.1,0.9,6.1,1.4s4,1,6.1,1.5h0c2,0.5,4,1,6,1.6c0.7,0.2,1.4,0.3,2,0.5c0.9,0.2,1.8,0.5,2.7,0.7c2.4,0.7,4.9,1.3,7.3,2.1
				c0.6,0.2,1.2,0.3,1.8,0.5c0.5,0.2,1.1,0.3,1.6,0.5c1.2,0.3,2.4,0.7,3.6,1.1c1.2,0.4,2.4,0.7,3.6,1.1c1,0.3,1.9,0.6,2.9,0.9
				c2.8,0.9,5.6,1.8,8.4,2.7c0.2,0.1,0.5,0.2,0.7,0.2c0.9,0.3,1.8,0.6,2.8,0.9c4.7,1.6,9.4,3.3,14.1,5c0,0,0.1,0,0.1,0
				c1,0.4,2,0.7,3,1.1c1.4,0.5,2.8,1.1,4.2,1.6c1.4,0.5,2.8,1.1,4.2,1.6c1.3,0.5,2.6,1,3.8,1.5c1.4,0.6,2.8,1.1,4.2,1.7
				c13.6,5.4,26.6,12.2,39.9,18.4c0.3,0.1,0.5,0.3,0.8,0.4c0.2,0.1,0.4,0.2,0.5,0.3c0,0,0,0,0,0c0.2,0.1,0.3,0.2,0.5,0.3
				c0,0,0,0,0,0c0,0,0.1,0,0.1,0.1c0,0,0,0,0.1,0c0.2,0.1,0.4,0.2,0.5,0.4h0c0,0,0,0,0,0c0,0,0,0,0,0c0.1,0.1,0.2,0.1,0.3,0.2
				c0.1,0.1,0.1,0.1,0.2,0.2c0,0,0,0,0.1,0.1c0,0,0.1,0.1,0.1,0.1l0.1,0.1c0.1,0.1,0.2,0.2,0.4,0.3c0.5,0.5,0.9,1,1.3,1.5
				c0.1,0.2,0.2,0.3,0.3,0.4c0.1,0.2,0.2,0.3,0.3,0.5c0,0,0,0.1,0,0.1c0.1,0.2,0.2,0.4,0.3,0.6c0,0,0,0,0,0c0,0.1,0.1,0.2,0.1,0.3
				c0.1,0.2,0.1,0.3,0.2,0.5c0,0.1,0,0.1,0.1,0.2c0.1,0.2,0.1,0.3,0.2,0.5c0,0.1,0.1,0.3,0.1,0.4c0,0.1,0,0.2,0.1,0.3
				c0,0.1,0.1,0.3,0.1,0.4c0,0,0,0,0,0c0,0,0,0.1,0,0.1c0,0.2,0.1,0.5,0.1,0.7c0,0.3,0.1,0.6,0.1,0.9c0,0.3,0,0.6,0,1
				c0,0.2,0,0.4,0,0.6c-0.2,7.8,0.6,15.6,0.7,23.5c0.2,12.2,0.3,24.5,0.2,36.7c0,0.8,0,1.6,0,2.4c0,0.8,0,1.6,0,2.4
				c0,0.4,0,0.8,0,1.2c0,0.4,0,0.8,0,1.2c0,0.2,0,0.4,0,0.7c0,0.7,0,1.3,0,2c0,0.2,0,0.4,0,0.6v0.2c0,4.2-0.1,8.3-0.2,12.5
				c-0.6,19.3-3.5,38.2-8.1,56.8c0,0.1,0,0.2-0.1,0.4c0,0.1,0,0.1,0,0.2c-2.6,10.4-5.8,20.7-9.3,30.9c-8.7,24.9-19.4,48.7-33.7,70.9
				l14,14c0.2-0.4,0.5-0.7,0.7-1.1c15.1-23.6,27.4-48.5,36.7-75.1c11.1-31.8,16.9-64.3,19-97.3c0-0.1,0-0.1,0-0.1c0-0.2,0-0.4,0-0.5
				c0.1-1.2,0.1-2.3,0.2-3.5c0.2-3.3,0.3-6.6,0.4-10c0-0.9,0.1-1.8,0.1-2.8c0-1.7,0.1-3.4,0.1-5.1c0-1.4,0-2.8,0.1-4.2
				c0-0.8,0-1.6,0-2.3c0-0.8,0-1.6,0-2.3c0-0.4,0-0.8,0-1.2v-0.4C619.5,174,619.5,170.2,619.4,166.4z"/>
		</g>
	</g>
	<g>
		<path class="st0" d="M205.2,784.7c-1.2,0-2.2-0.3-2.9-1s-1-1.7-1-2.9v-26c0-1.3,0.3-2.3,1-2.9s1.6-1,2.9-1h11.6
			c2.4,0,4.5,0.4,6.1,1.1c1.7,0.7,2.9,1.7,3.8,3s1.3,2.9,1.3,4.7c0,2-0.6,3.7-1.7,5.1c-1.1,1.4-2.7,2.3-4.7,2.8v-0.7
			c2.3,0.3,4.1,1.3,5.4,2.7c1.3,1.5,1.9,3.3,1.9,5.6c0,3-1,5.3-3.1,7c-2.1,1.7-4.9,2.5-8.6,2.5L205.2,784.7L205.2,784.7z
			 M208.4,764.7h7.1c1.9,0,3.2-0.3,4.1-1c0.9-0.7,1.3-1.7,1.3-3.1c0-1.4-0.4-2.5-1.3-3.1c-0.9-0.7-2.3-1-4.1-1h-7.1V764.7z
			 M208.4,779.1h7.9c1.9,0,3.3-0.4,4.2-1.1c0.9-0.7,1.3-1.8,1.3-3.3c0-1.5-0.4-2.7-1.3-3.4c-0.9-0.7-2.3-1.1-4.2-1.1h-7.9V779.1z"/>
		<path class="st0" d="M246.4,785.1c-1.2,0-2.1-0.3-2.7-1c-0.6-0.7-1-1.6-1-2.9v-13.9l1.5,4.3l-11.3-16.1c-0.5-0.7-0.7-1.4-0.7-2.2
			c0.1-0.8,0.4-1.5,1-2s1.4-0.8,2.5-0.8c0.8,0,1.5,0.2,2.1,0.5c0.6,0.4,1.2,1,1.8,1.8l7.7,11.1h-1.6l7.7-11.1
			c0.6-0.8,1.2-1.4,1.8-1.8s1.3-0.5,2.1-0.5c1,0,1.8,0.3,2.4,0.8s0.9,1.2,0.9,1.9s-0.2,1.6-0.8,2.4l-11.2,16l1.5-4.3v13.9
			C250.1,783.8,248.9,785.1,246.4,785.1z"/>
		<path class="st0" d="M294,785.2c-3.3,0-6.2-0.7-8.8-2.2s-4.5-3.5-5.9-6.1c-1.4-2.6-2.1-5.7-2.1-9.2c0-2.6,0.4-5,1.2-7.2
			c0.8-2.1,1.9-4,3.4-5.5c1.5-1.5,3.2-2.7,5.3-3.5s4.3-1.2,6.8-1.2c3.4,0,6.3,0.7,8.8,2.1c2.5,1.4,4.5,3.4,5.9,6s2.1,5.7,2.1,9.1
			c0,2.7-0.4,5.1-1.2,7.2c-0.8,2.1-1.9,4-3.4,5.5s-3.3,2.7-5.3,3.5C298.8,784.8,296.5,785.2,294,785.2z M294,778.9
			c1.9,0,3.5-0.5,4.8-1.3c1.3-0.9,2.4-2.2,3.1-3.8c0.7-1.7,1.1-3.7,1.1-6c0-3.5-0.8-6.2-2.4-8.2c-1.6-1.9-3.8-2.9-6.6-2.9
			c-1.9,0-3.5,0.4-4.8,1.3c-1.3,0.9-2.4,2.1-3.1,3.8s-1.1,3.7-1.1,6c0,3.5,0.8,6.2,2.4,8.2C289,777.9,291.2,778.9,294,778.9z"/>
		<path class="st0" d="M319.9,785.1c-1.1,0-1.9-0.3-2.5-0.9s-0.9-1.5-0.9-2.6v-27.7c0-1.2,0.3-2,0.9-2.6c0.6-0.6,1.5-0.9,2.6-0.9
			c1,0,1.7,0.2,2.3,0.5c0.6,0.3,1.1,1,1.5,1.8l11.1,20.3h-1.5l11.1-20.3c0.5-0.9,1-1.5,1.5-1.8c0.6-0.3,1.3-0.5,2.3-0.5
			c1.1,0,1.9,0.3,2.5,0.9c0.6,0.6,0.9,1.4,0.9,2.6v27.7c0,1.1-0.3,2-0.9,2.6s-1.4,0.9-2.5,0.9c-1.1,0-1.9-0.3-2.5-0.9
			s-0.9-1.5-0.9-2.6v-19.4h1.1l-9,16c-0.4,0.6-0.7,1.1-1.2,1.3s-1,0.4-1.7,0.4c-0.7,0-1.3-0.2-1.8-0.5c-0.5-0.3-0.9-0.7-1.2-1.3
			l-9-16h1.1v19.4c0,1.1-0.3,2-0.8,2.6C321.9,784.8,321.1,785.1,319.9,785.1z"/>
		<path class="st0" d="M359.4,785.1c-0.9,0-1.6-0.2-2.2-0.6c-0.6-0.4-0.9-1-1-1.7c-0.1-0.7,0-1.5,0.4-2.3l12.3-27
			c0.5-1.1,1.1-1.8,1.9-2.3s1.5-0.7,2.4-0.7c0.9,0,1.7,0.2,2.5,0.7c0.7,0.5,1.3,1.2,1.8,2.3l12.3,27c0.4,0.9,0.6,1.7,0.5,2.4
			c-0.1,0.7-0.5,1.2-1,1.6s-1.3,0.6-2.1,0.6c-1.1,0-1.9-0.2-2.5-0.7c-0.6-0.5-1.1-1.3-1.6-2.4l-2.9-6.7l3,2.1h-20l3-2.1l-2.8,6.7
			c-0.5,1.1-1,1.9-1.5,2.4C361.2,784.8,360.5,785.1,359.4,785.1z M373.1,758.8l-6.2,14.7l-1.3-1.9h15l-1.2,1.9L373.1,758.8
			L373.1,758.8z"/>
		<path class="st0" d="M398.3,785.1c-1.2,0-2.1-0.3-2.7-1c-0.6-0.7-1-1.6-1-2.8v-26.6c0-1.2,0.3-2.2,1-2.8c0.7-0.6,1.6-1,2.8-1h11.7
			c3.7,0,6.6,0.9,8.7,2.7c2.1,1.8,3.1,4.4,3.1,7.6c0,2.1-0.5,3.9-1.4,5.5c-0.9,1.5-2.3,2.7-4,3.5s-3.9,1.2-6.4,1.2l0.4-0.8h1.9
			c1.3,0,2.5,0.3,3.5,1s1.9,1.6,2.6,3l3,5.6c0.5,0.8,0.7,1.6,0.6,2.3s-0.3,1.4-0.9,1.8c-0.5,0.5-1.3,0.7-2.4,0.7s-1.9-0.2-2.6-0.7
			c-0.7-0.4-1.2-1.1-1.8-2l-4.7-8.5c-0.5-0.9-1-1.5-1.7-1.8c-0.7-0.3-1.5-0.5-2.6-0.5h-3.6v9.7c0,1.2-0.3,2.2-0.9,2.8
			C400.5,784.7,399.6,785.1,398.3,785.1z M402.1,766.2h6.7c2,0,3.4-0.4,4.4-1.2s1.5-2,1.5-3.6c0-1.6-0.5-2.8-1.5-3.5
			s-2.5-1.2-4.4-1.2h-6.7V766.2z"/>
		<path class="st0" d="M443.6,784.7c-0.9,0-1.7-0.2-2.3-0.6s-1-0.9-1.2-1.6s-0.2-1.4,0-2.3s0.7-1.7,1.3-2.5l17.5-22.9v2.3H443
			c-1.1,0-1.9-0.3-2.4-0.8c-0.6-0.5-0.8-1.3-0.8-2.3s0.3-1.8,0.8-2.3s1.4-0.8,2.4-0.8h19.3c0.9,0,1.7,0.2,2.3,0.6
			c0.6,0.4,1,0.9,1.2,1.6c0.2,0.7,0.2,1.4,0,2.3c-0.2,0.8-0.7,1.7-1.3,2.5l-17.5,22.8v-2.2h16.6c1.1,0,1.9,0.3,2.4,0.8
			c0.5,0.5,0.8,1.3,0.8,2.3c0,1-0.3,1.8-0.8,2.3s-1.3,0.8-2.4,0.8L443.6,784.7L443.6,784.7z"/>
		<path class="st0" d="M486.6,785.2c-3.3,0-6.2-0.7-8.8-2.2s-4.5-3.5-5.9-6.1c-1.4-2.6-2.1-5.7-2.1-9.2c0-2.6,0.4-5,1.2-7.2
			s1.9-4,3.4-5.5s3.2-2.7,5.3-3.5s4.3-1.2,6.8-1.2c3.4,0,6.3,0.7,8.8,2.1c2.5,1.4,4.5,3.4,5.9,6c1.4,2.6,2.1,5.7,2.1,9.1
			c0,2.7-0.4,5.1-1.2,7.2c-0.8,2.1-1.9,4-3.4,5.5s-3.3,2.7-5.3,3.5C491.4,784.8,489.1,785.2,486.6,785.2z M486.6,778.9
			c1.9,0,3.5-0.5,4.8-1.3c1.3-0.9,2.4-2.2,3.1-3.8c0.7-1.7,1.1-3.7,1.1-6c0-3.5-0.8-6.2-2.4-8.2c-1.6-1.9-3.8-2.9-6.6-2.9
			c-1.9,0-3.5,0.4-4.8,1.3c-1.3,0.9-2.4,2.1-3.1,3.8s-1.1,3.7-1.1,6c0,3.5,0.8,6.2,2.4,8.2C481.6,777.9,483.8,778.9,486.6,778.9z"/>
		<path class="st0" d="M523.6,785.2c-2.4,0-4.5-0.3-6.4-0.9s-3.4-1.5-4.6-2.8s-2.2-2.8-2.8-4.6c-0.6-1.8-0.9-3.9-0.9-6.3v-16.4
			c0-1.2,0.3-2.2,1-2.8c0.6-0.6,1.5-0.9,2.7-0.9c1.2,0,2.1,0.3,2.8,0.9c0.6,0.6,1,1.6,1,2.8v16.4c0,2.8,0.6,4.8,1.9,6.2
			c1.2,1.4,3.1,2.1,5.4,2.1c2.3,0,4.1-0.7,5.4-2.1s1.9-3.5,1.9-6.2v-16.4c0-1.2,0.3-2.2,1-2.8c0.6-0.6,1.6-0.9,2.8-0.9
			c1.1,0,2,0.3,2.6,0.9c0.6,0.6,1,1.6,1,2.8v16.4c0,3.2-0.5,5.9-1.7,8.1c-1.1,2.2-2.7,3.8-4.9,4.9
			C529.5,784.6,526.8,785.2,523.6,785.2z"/>
		<path class="st0" d="M545.7,785.1c-0.9,0-1.6-0.2-2.2-0.6c-0.6-0.4-0.9-1-1-1.7c-0.1-0.7,0-1.5,0.4-2.3l12.3-27
			c0.5-1.1,1.1-1.8,1.8-2.3s1.5-0.7,2.4-0.7c0.9,0,1.7,0.2,2.5,0.7c0.7,0.5,1.3,1.2,1.8,2.3l12.3,27c0.4,0.9,0.6,1.7,0.5,2.4
			s-0.5,1.2-1,1.6s-1.3,0.6-2.1,0.6c-1.1,0-1.9-0.2-2.5-0.7c-0.6-0.5-1.1-1.3-1.6-2.4l-2.9-6.7l3,2.1h-20l3-2.1l-2.8,6.7
			c-0.5,1.1-1,1.9-1.5,2.4C547.5,784.8,546.7,785.1,545.7,785.1z M559.4,758.8l-6.2,14.7l-1.3-1.9h15l-1.2,1.9L559.4,758.8
			L559.4,758.8z"/>
		<path class="st0" d="M584.6,785.1c-1.2,0-2.1-0.3-2.7-1c-0.6-0.7-1-1.6-1-2.8v-26.6c0-1.2,0.3-2.2,1-2.8c0.7-0.6,1.6-1,2.8-1h11.7
			c3.7,0,6.7,0.9,8.7,2.7c2.1,1.8,3.1,4.4,3.1,7.6c0,2.1-0.5,3.9-1.4,5.5c-0.9,1.5-2.3,2.7-4,3.5s-3.9,1.2-6.4,1.2l0.4-0.8h1.9
			c1.3,0,2.5,0.3,3.5,1s1.9,1.6,2.6,3l3,5.6c0.5,0.8,0.7,1.6,0.7,2.3s-0.3,1.4-0.9,1.8c-0.5,0.5-1.3,0.7-2.4,0.7s-1.9-0.2-2.6-0.7
			c-0.7-0.4-1.2-1.1-1.8-2l-4.7-8.5c-0.5-0.9-1-1.5-1.7-1.8c-0.7-0.3-1.5-0.5-2.6-0.5h-3.6v9.7c0,1.2-0.3,2.2-0.9,2.8
			C586.8,784.7,585.9,785.1,584.6,785.1z M588.3,766.2h6.7c2,0,3.4-0.4,4.4-1.2s1.5-2,1.5-3.6c0-1.6-0.5-2.8-1.5-3.5
			s-2.5-1.2-4.4-1.2h-6.7V766.2z"/>
		<path class="st0" d="M618,785.1c-1.2,0-2.1-0.3-2.7-1c-0.6-0.7-1-1.6-1-2.8v-27c0-1.2,0.3-2.2,1-2.8s1.5-1,2.7-1
			c1.2,0,2.1,0.3,2.8,1s1,1.6,1,2.8v27c0,1.2-0.3,2.2-0.9,2.8C620.2,784.7,619.3,785.1,618,785.1z"/>
	</g>
</g>
</svg>
